# xmcd
#
# Track frame offsets:
#	150
#	19527
#	37365
#	55763
#	69808
#	84257
#	101718
#	117590
#	133477
#	153573
#	167994
#	184773
#
# Disc length: 2692 seconds
#
# Revision: 0
# Processed by: cddbd v1.4PL0 Copyright (c) Steve Scherf et al.
# Submitted via: audiograbber 1.81.01
#
DISCID=a60a820c
DTITLE=Drupi - I Grandi Successi Originali cd1
DYEAR=1900
DGENRE=pop
TTITLE0=Sambariò
TTITLE1=Sereno è
TTITLE2=Vado via
TTITLE3=Vita di mare
TTITLE4=Tutto bene
TTITLE5=Segui me (Sail away)
TTITLE6=Non sei più tù
TTITLE7=Oltre il pò
TTITLE8=Piccola e fragile
TTITLE9=Qualcosa cambierà
TTITLE10=Rimani
TTITLE11=Sabato sera
EXTD=
EXTT0=
EXTT1=
EXTT2=
EXTT3=
EXTT4=
EXTT5=
EXTT6=
EXTT7=
EXTT8=
EXTT9=
EXTT10=
EXTT11=
PLAYORDER=
